/* XPM */
static char *_1870640cebe4cc0a0289e35af9bbe79t9lkKUBTSBBmCyQz[] = {
/* columns rows colors chars-per-pixel */
"64 64 227 2 ",
"   c None",
".  c #030101",
"X  c #090400",
"o  c #060900",
"O  c #0B0A01",
"+  c #03010A",
"@  c #0B090B",
"#  c #09050A",
"$  c #120C00",
"%  c #130A04",
"&  c #0F1107",
"*  c #151400",
"=  c #191700",
"-  c #171800",
";  c #1B1A00",
":  c #13120C",
">  c #1D190D",
",  c #0E0D11",
"<  c #121111",
"1  c #191313",
"2  c #100E11",
"3  c #211D00",
"4  c #252500",
"5  c #282600",
"6  c #262900",
"7  c #2B2B00",
"8  c #302D00",
"9  c #343500",
"0  c #3E3E09",
"q  c #393802",
"w  c #282919",
"e  c #2E321A",
"r  c #343519",
"t  c #302D1A",
"y  c #2A2923",
"u  c #2E3124",
"i  c #3B3B2D",
"p  c #353728",
"a  c #383A34",
"s  c #413F0E",
"d  c #3E420F",
"f  c #3D4218",
"g  c #3E4235",
"h  c #3F4228",
"j  c #424302",
"k  c #464902",
"l  c #4B4C02",
"z  c #42420B",
"x  c #4D4B0D",
"c  c #4D4500",
"v  c #514A07",
"b  c #565100",
"n  c #565804",
"m  c #474717",
"M  c #555615",
"N  c #4F4D10",
"B  c #5F6618",
"V  c #636402",
"C  c #6C6E01",
"Z  c #696D08",
"A  c #716F03",
"S  c #726F0E",
"D  c #6E7202",
"F  c #6E730D",
"G  c #717200",
"H  c #7D7E00",
"J  c #70730D",
"K  c #757803",
"L  c #6C6E14",
"P  c #62641B",
"I  c #656819",
"U  c #6D7214",
"Y  c #6D721B",
"T  c #777619",
"R  c #706F12",
"E  c #474724",
"W  c #494B38",
"Q  c #5C5D33",
"!  c #696D29",
"~  c #6D7126",
"^  c #7D7E2A",
"/  c #696933",
"(  c #787932",
")  c #6C7131",
"_  c #3F3D45",
"`  c #413C41",
"'  c #4A474A",
"]  c #4B4B42",
"[  c #4F5549",
"{  c #55544A",
"}  c #4F4F52",
"|  c #575556",
" . c #514E4A",
".. c #625D43",
"X. c #5E625A",
"o. c #636254",
"O. c #817D01",
"+. c #817D0F",
"@. c #7F800A",
"#. c #838302",
"$. c #8E8D00",
"%. c #84830A",
"&. c #858A0C",
"*. c #918F00",
"=. c #939201",
"-. c #989602",
";. c #969800",
":. c #9C9C00",
">. c #97950D",
",. c #97990B",
"<. c #8B8B18",
"1. c #969915",
"2. c #A19F00",
"3. c #9FA000",
"4. c #9DA118",
"5. c #A3A302",
"6. c #A6A903",
"7. c #ACAD02",
"8. c #A4A50C",
"9. c #A6AA09",
"0. c #ACAC0A",
"q. c #A9A707",
"w. c #B0AE01",
"e. c #B1AF0B",
"r. c #AEB101",
"t. c #ABB10C",
"y. c #B4B401",
"u. c #B7B801",
"i. c #B9BA01",
"p. c #BAB905",
"a. c #A4A511",
"s. c #ABAB12",
"d. c #ABAD1A",
"f. c #A8AA17",
"g. c #ACB117",
"h. c #B2B41A",
"j. c #B6AD14",
"k. c #858324",
"l. c #8A892C",
"z. c #888728",
"x. c #92912A",
"c. c #8A8830",
"v. c #848534",
"b. c #959A35",
"n. c #A39A25",
"m. c #9BA120",
"M. c #9CA136",
"N. c #A6AB2B",
"B. c #ABB227",
"V. c #B7BA25",
"C. c #A6A63C",
"Z. c #BABE38",
"A. c #AFB038",
"S. c #C1BF08",
"D. c #BEC216",
"F. c #BBC529",
"G. c #C4C304",
"H. c #CAC701",
"J. c #C6C902",
"K. c #CBCB01",
"L. c #C5C60C",
"P. c #C6C909",
"I. c #CBCB0B",
"U. c #D1CD03",
"Y. c #D2CF0B",
"T. c #CED102",
"R. c #D1D104",
"E. c #D4D30B",
"W. c #DAD60D",
"Q. c #DAD90C",
"!. c #CACB12",
"~. c #C6C618",
"^. c #DDDB14",
"/. c #DEDC1B",
"(. c #D8D514",
"). c #E3DF13",
"_. c #E2DE1A",
"`. c #DDE416",
"'. c #DDE10E",
"]. c #E3E70E",
"[. c #E3E315",
"{. c #E5EA16",
"}. c #EAEA16",
"|. c #E4E31B",
" X c #E9E71D",
".X c #E6EA1A",
"XX c #EAEA1C",
"oX c #EFF11C",
"OX c #CACF26",
"+X c #DDDE21",
"@X c #DBDA2B",
"#X c #D4D528",
"$X c #CDD13E",
"%X c #D7DA39",
"&X c #C7CB36",
"*X c #E2DD23",
"=X c #DEE73B",
"-X c #E6E722",
";X c #EAE623",
":X c #E6EA22",
">X c #EBEA23",
",X c #EAE62B",
"<X c #E5EB2D",
"1X c #EBEB2B",
"2X c #E7E328",
"3X c #F5F32C",
"4X c #F8F82C",
"5X c #E6E932",
"6X c #E6EB3C",
"7X c #E6E636",
"8X c #F0E931",
"9X c #F6F532",
"0X c #FDFC35",
"qX c #FFFE3A",
"wX c #F5F63B",
"eX c #EDF02F",
"rX c #9EA347",
"tX c #BCC24C",
"yX c #CBCF42",
"uX c #CED043",
"iX c #D4DC4D",
"pX c #D3D64D",
"aX c #DBE244",
"sX c #DDE35B",
"dX c #E6EA42",
"fX c #E6E746",
"gX c #FFFF41",
/* pixels */
"                                            u . . . . . . . . . . . . . . . . . . u                                             ",
"                                            i . . . . . . . . . . . . . . . . . X u                                             ",
"                                            y # . . . . . . . . . . . . . . . . . y                                             ",
"                                            t . . . . . . . . . . . X . . . . . X r                                             ",
"                                            j 7 7 7 7 7 7 7 7 7 7 7 7 7 7 7 7 7 7 k                                             ",
"                                  [ & : : ; M.uX$X$XuXuXuXuXuXuX$X$XuXuXuX$X$X$XyXC.= 1 < < a                                   ",
"                                  g . . . O B.5X<X<X5X5X5X5X5X5X5X5X5X5X5X5X<X<X6XB.O X . . W                                   ",
"                                  i . . X * h..X.X X;X;X X.X.X.X:X:X X.X;X:X:X:X:Xg.$ . . # i                                   ",
"                                  u X . X $ d.eX,X2X8X,X>XXX}.}.XXXXXX>X,X,X1X<X<Xh.$ X . . i                                   ",
"                                  m 8 9 q c ~.1X1X,X8X_._.[.[.[.).).)._._.*X*X*X1X0.q 8 5 4 E                                   ",
"                        | # # O ; b.pXaX%X#X.X]. X;X XY.K.K.U.U.U.U.U.U.U.U.U.U.J.T.D.V.F.tXl.- O # , }                         ",
"                        ' . # . X A.=X`..X.X].oXXXXX}.R.H.K.K.H.K.K.K.K.K.K.K.K.T.J.K.P.P.F.<.X . . . _                         ",
"                        | . . . * C.6X>XoX}..X.X XXX}.R.K.K.K.K.K.K.I.I.U.U.U.K.H.H.R.J.J.OXx.X . X X '                         ",
"                        i X X X % n.dX:X[..X>X:XXX.X[.T.K.H.K.H.H.H.I.K.K.K.K.K.U.K.J.G.I.#X<.O X X . {                         ",
"                        x k j k b j.5X-X>XXX^.[.[.'.`.I.I.I.K.K.K.K.K.K.K.K.U.U.H.K.K.H.P.~.,.j q 9 6 Q                         ",
"                . O X O b.sXiX%X@X,XeX:X|..XE.J.K.J.T.J.I.I.K.K.K.K.H.H.K.K.K.K.K.H.K.K.I.!.~.a.N.M.rX! O . , .                 ",
"              [ . . X X >.6X6X7X,X;X>X|.:X XK.K.K.H.K.H.K.K.K.H.H.K.K.H.K.K.H.K.K.K.H.K.I.I.L.7.0.f.N.L . X + +                 ",
"              W . . . X ;.1X1X1X>X X>X X:X XU.K.U.K.K.K.H.H.K.H.K.K.K.H.K.K.K.U.K.K.H.K.I.I.G.7.7.7.d.D X . . .                 ",
"              ] . . X X ,.:XXXXX X X>X:X>X XR.K.K.H.K.K.H.H.H.K.K.K.H.K.K.K.H.K.H.K.H.K.I.I.G.7.7.7.s.G O X . .                 ",
"              ..m x N b h.-X[.}.XX).).).[.^.K.K.H.H.K.^.^.^.^.^././.^.^.^.K.H.H.K.K.K.K.K.I.G.7.7.0.s.H 7 5 4 4 W               ",
"      . X . $ v.sXaXfX@X1X>X:X>X XW.K.H.K.K.K.K.U.R.E.3X0XqXqXqXqXgXgXqX3XE.T.T.K.K.K.K.K.I.G.7.7.7.t.,.V L ~ ) f o . @ .       ",
"      . . . X l.dX.X>XXXXX[.;X;X XE.H.H.H.H.K.H.H.H.K.3X0XqX0X0XqXgXgXqX3XK.J.J.H.K.K.K.K.K.G.7.7.0.7.;.D D Z I d . . . .       ",
"      . . $ $ k.fX:X[.XXXXXX>X}. XE.K.R.R.K.K.H.K.K.K.9X0X0X0X0XqXqXqXqX0XI.I.K.K.K.K.K.K.K.G.7.7.7.6.;.K G D Y z X . . #       ",
"      . . . X c.fX1XXXXXXXXXXXXXXXE.H.K.H.H.K.H.H.K.K.4X0X0X0X0XqXqX0X0X9XI.!.L.I.I.K.H.K.K.G.7.7.y.7.;.K C D U 0 . . . .       ",
"      . . . X l.fX.X}.oX[.Q.^.Q.Q.R.K.K.H.H._.[._.^.:X3X9X3X3X4X4X4X3X3X1Xu.y.y.y.y.I.K.H.I.G.y.7.7.q.=.G G D U 0 X . . .       ",
"      . . . X z.fX X}.XXQ.K.K.H.K.H.H.K.K.E.3X0XqX0X0X>X>X X X X[.{..X>X/.:.=.*.;.5.L.K.H.K.G.y.7.7.0.;.G G D U s . . . .       ",
"      . . X X z.fX:X XXXW.J.K.J.K.K.K.K.K.U.3XqXqXqX0X:X X:XXXXX}.}.XX>X+X:.=.=.$.:.L.K.H.K.G.7.7.7.0.;.G G D Y s . . . .       ",
"      . . . X l.fX:X XXXW.H.I.K.K.K.H.K.H.K.3XqX0XqX0X>X X>XXX}.XX.X.X:X(.;.$.*.*.2.!.I.H.K.G.w.7.7.0.;.G G D Y z . . . .       ",
"      . . . X l.6X}.}.}.Q.H.I.K.K.K.H.K.K.R.3XqXqXqXqX>X X X X X:X:X>X1X#X:.=.*.=.:.L.K.H.K.G.w.w.7.0.=.G G D Y z . . . .       ",
"      . X . X l.6X}.}.}.W.H.K.K.K.K.K.K.K.K.3X0XqX0X0X>X X X X:XI.I.I.!.~.=.$.*.*.:.L.K.K.K.G.7.7.0.q.;.G G D U s . . . .       ",
"      . . . . c.6X.XXXXXW.K.K.K.J.H.H.K.K.U.3XqXqXqX0X>X:X X|._.u.7.7.7.7.$.$.=.=.3.P.K.K.K.G.7.0.0.q.;.G G D U z . . . .       ",
"      . . . X v.dX}.XX XW.H.K.J.K.K.K.K.H.K.3XqXqXqXqX:X:X>X X|.u.7.r.7.0.=.*.*.*.:.P.K.H.K.G.w.7.7.7.;.G G D U z . . . .       ",
"      . . . X c.dX.XXX XW.H.K.K.K.K.K.K.K.E.3XqXqXqX0X>X-X:X:X/.u.7.7.7.q.=.*.=.*.:.I.H.K.H.G.w.7.7.7.;.G G D F 0 X . . . X.    ",
"      . . . X l.6X.XXXXXW.H.K.K.K.K.K.H.H.U.3XqXqXqXqX1X-X;X;X+Xu.y.7.w.0.*.$.$.=.2.I.J.K.H.G.7.7.7.0.=.G G D F z . . . . |     ",
"      # . . X k.6X{.}.XXW.H.K.K.K.K.H.H.K.R.3X0XqX0X9XI.J.P.I.G.7.7.7.7.q.=.=.=.*.:.I.K.K.H.G.7.7.0.f.>.G G D U m . . . . X.    ",
"      . . . O z.6X.XXXXXW.H.K.K.H.K.K.K.K.R.3X0XqXqX3Xi.7.r.y.7.7.7.7.7.6.=.*.*.*.:.L.H.K.K.G.w.7.0.s.>.G G D U s . X . .       ",
"      . . . X k.dX.X:X:XW.H.K.K.H.K.K.K.H.K.3XqX0XqX9Xi.7.7.7.7.7.7.7.7.6.=.=.*.=.:.L.J.H.J.G.w.7.7.0.-.G G D U 0 . X . .       ",
"      . . . X z.dX:X:X:XW.H.K.K.H.K.K.K.H.R.4XqXqXqXwXu.7.7.7.7.7.7.7.7.q.=.=.$.=.:.I.I.E.I.L.7.7.7.7.-.G D D F z . . . .       ",
"      . . . X z.6XXX X:XW.H.K.K.K.K.H.K.K.R.3X9XqXqXwXy.7.q.0.0.0.0.7.7.6.=.=.*.=.:.L.P.I.P.p.7.w.7.0.-.G G D U z . . . .       ",
"      . . . X z.6XXX X>XW.H.K.K.K.K.K.K.K.H.[.|.|.+X@X5.3.:.;.:.:.:.:.:.5.:.8.8.5.5.p.u.u.u.p.7.w.7.0.-.G G D U 0 X . . .       ",
"      . . . X z.7XXX:X>XE.K.K.K.K.K.K.K.K.K.K.K.I.L.~.=.=.=.=.$.$.=.=.=.-.s.s.0.0.y.7.7.r.y.7.7.7.7.0.=.G G D U z . . @ .       ",
"      . . X O k.6X{.|.;XE.K.U.K.K.K.K.K.K.K.K.K.I.L.~.=.*.*.*.=.*.=.=.*.=.s.0.0.0.7.7.7.7.7.7.7.7.7.0.;.G G D U q O . . X       ",
"      . . . X x.6X{.>X1X(.H.H.H.K.K.K.K.K.K.K.K.I.!.~.:.=.$.=.=.$.$.$.$.=.q.0.0.7.7.7.7.7.7.7.r.7.7.7.;.G D D Y d . O . .       ",
"      X . . X ^ sX=XfX%X#XY.H.U.K.K.K.K.K.K.K.K.G.L.S.:.=.=.=.=.=.=.*.=.-.0.0.e.7.7.7.7.7.7.0.6.0.0.g.1.C L I ! f . . . .       ",
"              ..N x x c >.!.J.R.K.K.K.K.K.K.K.K.K.I.I.i.u.u.u.e.5.5.5.5.5.0.7.7.7.7.y.7.7.0.5.$.#.#.%.V 5 5 4 6 W               ",
"                . . X X %.~.J.T.K.K.K.K.K.K.K.K.H.K.K.G.I.I.I.!.r.0.0.7.7.y.7.7.7.7.w.0.q.0.;.G G G S v X X . o [               ",
"                . . X X &.OXJ.K.H.H.K.K.K.K.K.K.K.K.H.H.K.K.K.I.r.7.7.7.7.y.7.r.7.7.0.0.0.s.;.G G G L x . . . .                 ",
"                . . X X @.&X~.!.I.I.K.K.K.K.K.K.K.R.H.H.H.H.H.P.r.7.7.7.7.y.7.r.y.7.7.0.0.f.,.G D U Y m . . . .                 ",
"                . & . O ^ tXZ.Z.V.~.!.G.I.G.K.K.H.H.H.K.K.I.L.L.r.r.0.0.0.7.7.7.w.7.q.s.s.f.1.J I ~ / m $ . O .                 ",
"                        / 9 9 9 l $.r.u.p.u.i.y.u.u.i.i.u.u.u.u.r.7.0.0.0.7.7.7.y.6.$.H #.&.V 5 7 5 ; E                         ",
"                         .. . O O +.h.r.6.7.y.7.7.7.7.7.7.7.7.7.7.7.7.7.7.7.7.7.7.;.K C G C l O X . X W                         ",
"                        ` X . . $ T a.6.7.6.q.0.0.0.7.7.7.7.7.7.7.7.7.7.7.7.7.7.e.8.K G D R N X . . .  .                        ",
"                        _ # # X X ^ B.9.t.0.7.6.0.0.7.7.7.7.7.7.7.7.7.7.7.7.7.7.0.,.G J F Y N X . # . '                         ",
"                        } # # X ; ! M.m.1.4.d.8.a.8.9.6.6.6.6.6.9.9.8.q.0.0.q.0.8.m.R M P ) E O X . # |                         ",
"                                  E 5 6 5 7 V %.H H H H H H O.H H H H O.O.O.O.@.#.V 4 3 * O h                                   ",
"                                  p . X . $ n C C D G G G G G A G G A A G G G G G b X . X . g                                   ",
"                                  W . . . X l F D D D D D G G G G G G A G G D D J l $ . . . a                                   ",
"                                  p . # . O M U F F F F F F J J J J J J J F J F L M X . # # a                                   ",
"                                  i : : < * m P B I P P P P P P P P P I P P P P ! m > @ 2 2 }                                   ",
"                                            E * - - - - - - - - = = - - - - = - * r                                             ",
"                                            e o . . . . . . . . . . . . . . . . . t                                             ",
"                                            w . . + + + . . . + + . . . . . . . . i                                             ",
"                                            p . . + . . . . . . . . . . . . . . X i                                             ",
"                                            e . . + . . . . . . . . . . . . . . . u                                             "
};
