/* XPM */
static char *_11cd15f0fa7429cf450b3abacd2290cPgd3XPKepTRbNqUC[] = {
/* columns rows colors chars-per-pixel */
"64 64 244 2 ",
"   c None",
".  c #351F14",
"X  c #3B250C",
"o  c #2C2716",
"O  c #362213",
"+  c #342C1C",
"@  c #382817",
"#  c #322911",
"$  c #372C25",
"%  c #3B3429",
"&  c #2D2920",
"*  c #57270A",
"=  c #4A2D19",
"-  c #472A16",
";  c #552D15",
":  c #46331A",
">  c #4C331C",
",  c #4A3314",
"<  c #54341C",
"1  c #5C361C",
"2  c #56371A",
"3  c #45240B",
"4  c #633A1C",
"5  c #6B3B1D",
"6  c #6A3518",
"7  c #743C1B",
"8  c #462E24",
"9  c #4B3424",
"0  c #4D3B21",
"q  c #43342B",
"w  c #483928",
"e  c #583826",
"r  c #473D33",
"t  c #683D25",
"y  c #763E23",
"u  c #6C401B",
"i  c #574228",
"p  c #4D4534",
"a  c #554839",
"s  c #49412E",
"d  c #6B4628",
"f  c #7C4422",
"g  c #7B4A27",
"h  c #754A2C",
"j  c #784629",
"k  c #7B522B",
"l  c #674D36",
"z  c #774C32",
"x  c #7C5335",
"c  c #75533B",
"v  c #7B563C",
"b  c #7A5B3D",
"n  c #74593A",
"m  c #6A513A",
"M  c #5A5242",
"N  c #6B5944",
"B  c #6A5748",
"V  c #745541",
"C  c #735B43",
"Z  c #7C5A43",
"A  c #7A5E4B",
"S  c #755B48",
"D  c #665C52",
"F  c #786248",
"G  c #6F6758",
"H  c #796A56",
"J  c #7D7259",
"K  c #6C604A",
"L  c #7A6F64",
"P  c #7A7560",
"I  c #854B1D",
"U  c #A04E1F",
"Y  c #834B25",
"T  c #83462C",
"R  c #844D2B",
"E  c #8A4D2C",
"W  c #8A4623",
"Q  c #954D29",
"!  c #83512D",
"~  c #8B522B",
"^  c #87582E",
"/  c #94522C",
"(  c #9A542B",
")  c #94592C",
"_  c #9B5428",
"`  c #834C34",
"'  c #884D36",
"]  c #825333",
"[  c #8B5433",
"{  c #82563C",
"}  c #8C5B3B",
"|  c #875839",
" . c #935434",
".. c #9B5534",
"X. c #945B34",
"o. c #9A5A34",
"O. c #925639",
"+. c #975C3B",
"@. c #A94F2A",
"#. c #AB542B",
"$. c #A2592D",
"%. c #AD5A2C",
"&. c #A65527",
"*. c #B45B2C",
"=. c #BB5C2B",
"-. c #B75626",
";. c #A35634",
":. c #AB5632",
">. c #A35B34",
",. c #AC5D34",
"<. c #A55D3B",
"1. c #A95B39",
"2. c #B35632",
"3. c #B35D34",
"4. c #BA5D33",
"5. c #B35D39",
"6. c #B75B38",
"7. c #9C623A",
"8. c #8C663D",
"9. c #BC622D",
"0. c #B76329",
"q. c #AA6434",
"w. c #AA633B",
"e. c #A86539",
"r. c #B46333",
"t. c #BC6434",
"y. c #B46B35",
"u. c #BB6A34",
"i. c #B4643C",
"p. c #BC643A",
"a. c #B26B3B",
"s. c #BB6A3A",
"d. c #B16B36",
"f. c #C35E2C",
"g. c #C5652D",
"h. c #C26333",
"j. c #C66839",
"k. c #C07136",
"l. c #855D47",
"z. c #985D42",
"x. c #A05F42",
"c. c #89684C",
"v. c #996949",
"b. c #846B57",
"n. c #85755A",
"m. c #8B7559",
"M. c #927655",
"N. c #956D4F",
"B. c #A86848",
"V. c #B56944",
"C. c #B66B44",
"Z. c #AC7249",
"A. c #A77657",
"S. c #AF704B",
"D. c #8C7C63",
"F. c #867867",
"G. c #957C64",
"H. c #927B65",
"J. c #857E76",
"K. c #A27860",
"L. c #B6845B",
"P. c #A0825C",
"I. c #9B856C",
"U. c #9A8469",
"Y. c #9C8A74",
"T. c #998976",
"R. c #918774",
"E. c #A2856B",
"W. c #A58B6C",
"Q. c #A88A6A",
"!. c #A48D73",
"~. c #AA8C74",
"^. c #A58A77",
"/. c #A49176",
"(. c #A5927B",
"). c #AB947B",
"_. c #B4987B",
"`. c #979284",
"'. c #A49484",
"]. c #AC9B89",
"[. c #AA9784",
"{. c #B29D85",
"}. c #B39C89",
"|. c #A89C92",
" X c #B4A28A",
".X c #BBA58C",
"XX c #B7A587",
"oX c #AAA294",
"OX c #B8A895",
"+X c #B5AA96",
"@X c #BDB0A6",
"#X c #C3A889",
"$X c #C4AD95",
"%X c #C7B49A",
"&X c #D4B69A",
"*X c #DBBC9D",
"=X c #D4B897",
"-X c #CFAF8F",
";X c #E2BE98",
":X c #C8B8A7",
">X c #D4BDA3",
",X c #D6BCA6",
"<X c #CCBEB3",
"1X c #E4BDA0",
"2X c #DCC29D",
"3X c #E1C39F",
"4X c #DBC2A2",
"5X c #DBC5AC",
"6X c #DDCAAB",
"7X c #D5C2A7",
"8X c #D5C4B1",
"9X c #DDCBB3",
"0X c #D7C9B7",
"qX c #D2C8B1",
"wX c #E2C6AA",
"eX c #E3C9AB",
"rX c #ECCAAE",
"tX c #E2CCB3",
"yX c #E6CDB6",
"uX c #E8D4B9",
"iX c #F2D4B4",
"pX c #D8CEC2",
"aX c #DCD4C9",
"sX c #E2D3C3",
"dX c #E7D9C8",
"fX c #F4DDC6",
"gX c #EADED2",
"hX c #F8E4CC",
"jX c #ECE3D6",
"kX c #FCE6D5",
"lX c #FAE4DA",
"zX c #FBEBDC",
"xX c #F5E7D8",
"cX c #F5EACF",
"vX c #FBEDE3",
"bX c #F2EBE2",
"nX c #FEF3E5",
"mX c #FFF9E4",
"MX c #FCF4EC",
"NX c #FFFBED",
"BX c #F5F4E7",
"VX c #FFFCF3",
"CX c #FFFDFA",
"ZX c #FBF5F3",
/* pixels */
"                                                                                                                                ",
"                                                                                                                                ",
"                                                                                                                                ",
"                                                                                                                                ",
"                                                                                                                                ",
"                                                                                                                                ",
"                                                                                                                                ",
"                                                                                                                                ",
"                                                                                                                                ",
"                                                            aXpXaXjXjX                                                          ",
"                                                      VXgX+X:XoXoX@X<XpXVX                                                      ",
"                                                      H D :X+X].'.OX%X].].dX                                                    ",
"                                                    8XH F $XT.(.!./.$XD.K uX8X                                                  ",
"                                                Y.{..XG.F $X!./.!.M._.c.!.uXtX5XfX                                              ",
"                                              b.W.W.#X~.F W.E.U._._.Q.M.#X4X&XwXtXhX                                            ",
"                                            >Xm.W.Q.~.W.n ).U.~.E.Q.Q.N.-X3X4X&XtX.X%X                                          ",
"                                          9XwX).N.~.U.U.N T.U.~.W.E.~.G.=X=X=X*X,XH.XX$XzX                                      ",
"                                      (.C >X&X4Xb W.Y.T.a '.}.^.^.[.(.n.4X-X*XeX.XH.{.b #XuX0X                                  ",
"                                    $X$X!.m.6X>X!.b.|.J.% M S H F B s p :X,X9X.XH.).m.P.rX*XtX9X                                ",
"                                )._.).~.XXm.%X9X:Xq a $ & o O X O @ + o # a F.w T.T.m.2X2X;XrX,XpX                              ",
"                              ].W._.E.E.!.Y.H  Xa @ % q q 8 9 > : 0 9 w w @ O @ D M OX&X3X=X=XiXsX                              ",
"                          MX  .Xn E.{.(.'.R.# O - e 8 9 @ - - ; ; - = - = = 9 9 $ o |.qX%X=XrXm.OXVX                            ",
"                          bX0X9X4XXXH R.R.r @ 9 < ; ; 4 d h 5 y j y f 6 5 * ; < 8 $ & oX0X.Xn l (.nX                            ",
"                          NX7X6X6XeX:XD $ q @ < 5 g f X.~ X.B.x.+.x.7.) ) I f 4 9 8 $ % J.H U.$X X@X                            ",
"                          VX Xn./.{.0X@X. 9 1 f o.q.d.a.y.a.C.V.S.V.a.y.y.q.q.o.j e 8 + a +X(.U./.+X                            ",
"                          jX:X[.m.N G a . d R e.s.s.u.s.r.r.C.i.V.a.y.y.u.0.s.a.w.` e O D [.I.I.I.[.sX                          ",
"                          gX].XXXX(.'.e 2 ^ q.u.j.j.t.t.9.r.s.r.i.i.y.r.u.*.j.j.s.w.| 3 l {.!._.(.D.pX                          ",
"                          xX[.(.).).^.i u e.k.g.h.4.4.p.9.9.s.3.r.t.t.t.p.*.h.h.9.y.B.d > D.m.l n.9X                            ",
"                          MXgXb.m C m e 8.q.0.g.j.h.p.p.t.9.t.*.=.h.h.t.j.4.h.h.j.u.Z.8.X l _.).XXmX                            ",
"                          VXNX8X#X.XA 3 Z.a.0.g.j.p.p.p.=.=.h.=.=.h.=.=.j.4.h.h.g.h.S.8., XXiXeXuXdXNX                          ",
"                          VXjXsX6XhX].= A.V.0.9.t.p.i.t.=.=.h.=.=.h.g.*.p.r.t.h.j.*.S.A.= ).&X*X%XcXVX                          ",
"                          CXMX8X7X7XT.9 A.S.,.r.i.i.i.s.9.f.f.-.-.h.h.*.s.i.i.p.p.i.S.K.> D.iX&X7XgXVX                          ",
"                          CXnX8X>X,XL + c.A.B.B.B.B.<.i.4.4.=.=.-.h.4.r.V.<.B.B.B.B.A.c.w % T.D.(.NXMX                          ",
"                          CXNX0XH.F p r e ; T T 6 7 W ,.5.4.*.=.-.h.4.3.,.W y 6 T ` * < + D OX$X].nXVX                          ",
"                          CXnX X~.%XL O z ' ..<.W Q &.p.6.2.-.-.@.4.4.4.s._ Q Q Q >.7.z @ H }.[.'.sXCX                          ",
"                          CXNX{.~.~.F.9 K.B.;.5.C.i.3.p.2.2.4.2.@.4.4.*.t.*.r.s.s.s.q.L.: S [.^. XsXZX                          ",
"                          CXnX{.~.~.b.= A.<.#.p.r.3.%.3.#.2.5.:.@.5.3.#.*.%.*.r.=.*.q.L.2 H ~.~.[.dXCX                          ",
"                          CXzXOXF c.w > A.;.#.=.*.*.%.3.:.1.1.;.( >.5.%.3.*.%.*.h.-.r.L.2 i ~.G.(.nXCX                          ",
"                          CXzX9X,X7XB : v.( *.=.%.%.&.q.;./ / O. .E o.;.,.#.:.:.4.*.a.A., (.uXtX9XzXMX                          ",
"                          VXsX7X6XuXR.: N._ &.=.%.$.$.w.o.f 7 g g 7 T o.w.;.;.:.2.3.C.A.i J {.XX.XjXCX                          ",
"                          CXdX.X.X9XP @ N./ U *.%._ $.>.O.7 v.4 5 v.f  .<.<...;.2.:.w.A.0 a U.I.D.zXZX                          ",
"                          VX0Xb.m.D.M 9 N.o._ #.$.>.( o.z.6 * t 5 * 6 +.o.......:.:.w.A.0 F. XY.:X0XCX                          ",
"                          VX0X$X{..XF.: c.W ;.:.( o...o.O.T 5 ] ` 6 g O.o.( / _ &.,.e.v.: J }.).).8XCX                          ",
"                          MXuXC A H.q w N. .( ;.o.X. .+.E z.v.[ ' z.O.E o.) / ( $.$.7.v.i p A V H dXMX                          ",
"                          VXkXG.#X}.a w l.T / o.[ [ [ O. .O.O.E ' O.E  .X.~ ~ ~ / ) ) N.0 a OX:X$XfXMX                          ",
"                          MX9XfXhXkX|.% A ] O.O.| ] } [ [ O.E / O.E E [ [ +.] | +.X.! N.: J fXtXfXdXMX                          ",
"                          vXdXuXwXdX`.& V l.` } { x } | R [ ~ ~ ~ ~ E R } | v Z { v.v F + G sX>XyXyXbX                          ",
"                          NXuX>X>XtX`.o > ; h d 1 d 5 ] [ R ~ R Y ~ R [ | 1 l 1 t z 1 : o G 9X5XtX8XxX                          ",
"                          mX5X4X5XtXT.@ > t h d 1 4 h | Y ! | ! ~ R ` ' { z 4 6 y z e w + P yXwXeX>XzX                          ",
"                          mXyXeX4XyXI.X n c | x { { | } Y R R g Y Y j ' l.{ ] ^ E } Z N o P fX*XeX4XhXNX                        ",
"                          mX9X&X=X2X!.> b x ] ] ] x ] [ Y E ! ! ~ R T ` { x k ~ W [ c F + J eX-X,X5XfXVX                        ",
"                          NXuX>X4X*X$X> z x k ] ] x ] [ Y ~ ] ! ~ R T ` { x k ! ~ O.h C @ n.rX1X,X5XjXVX                        ",
"                          MXsX%X%X4X&XX n v z h x x x ] g g h h g j j z v v k k Y ] c N # n.rX&X,X8XnXVX                        ",
"                            dX:X>X5X}.l V V Z v V Z b Z x v v Z b v c V A C n x x v V B p R.5X,X:X<XMX                          ",
"                              vXzXnXxXVXxXlXzXkXzXvXzXzXkXkXlXzXkXkXlXlXvXzXkXkXhXkXzXvXBXBXzXlXvXvXCX                          ",
"                                                                                                                                ",
"                                                                                                                                ",
"                                                                                                                                ",
"                                                                                                                                ",
"                                                                                                                                ",
"                                                                                                                                ",
"                                                                                                                                ",
"                                                                                                                                ",
"                                                                                                                                "
};
