/* XPM */
static char *_290e115638d4a91d27d8c5b9e4e5d16qQKOiQeJqCEhtNIe[] = {
/* columns rows colors chars-per-pixel */
"64 64 256 2 ",
"   c #47704C",
".  c #2D1A1E",
"X  c #2E2D2B",
"o  c #322025",
"O  c #221F26",
"+  c #403333",
"@  c None",
"#  c #322225",
"$  c #054546",
"%  c #BBA897",
"&  c #382226",
"*  c #C4B1A1",
"=  c #592527",
"-  c #2D1F1F",
";  c #292227",
":  c #3B2830",
">  c #372325",
",  c #59382C",
"<  c #4B4048",
"1  c #BEAB9B",
"2  c #B9A697",
"3  c #322224",
"4  c #362124",
"5  c #CBBAA3",
"6  c #39272D",
"7  c #362227",
"8  c #4F332F",
"9  c #BAA797",
"0  c #372025",
"q  c #5C2329",
"w  c #41333A",
"e  c #392B32",
"r  c #B9A597",
"t  c #381F23",
"y  c #372226",
"u  c #3F2A34",
"i  c #443845",
"p  c #524A51",
"a  c #704F39",
"s  c #E0CFB7",
"d  c #473C4B",
"f  c #482726",
"g  c #6B2E2C",
"h  c #51342F",
"j  c #381E24",
"k  c #7F6E6B",
"l  c #45383D",
"z  c #30212C",
"x  c #7B282B",
"c  c #2C1D2B",
"v  c #3D2A2C",
"b  c #5C5860",
"n  c #C5B3A3",
"m  c #542629",
"M  c #76292C",
"N  c #3F333A",
"B  c #391F24",
"V  c #412627",
"C  c #2D2125",
"Z  c #7B6E6D",
"A  c #2C1B24",
"S  c #522826",
"D  c #5A4F4F",
"F  c #575257",
"G  c #442726",
"H  c #54372F",
"J  c #341C26",
"K  c #40333F",
"L  c #2D212F",
"P  c #BCAB96",
"I  c #BBA898",
"U  c #C0AD9B",
"Y  c #B9A697",
"T  c #5A2E27",
"R  c #AB978E",
"E  c #6B3F27",
"W  c #91302B",
"Q  c #6E2D29",
"!  c #93322D",
"~  c #622529",
"^  c #67262A",
"/  c #594237",
"(  c #95352D",
")  c #79593B",
"_  c #4C444F",
"`  c #4F2427",
"'  c #A18E83",
"]  c #552227",
"[  c #7B2D2A",
"{  c #433B49",
"}  c #676365",
"|  c #402E2E",
" . c #59423C",
".. c #7C6867",
"X. c #5D585C",
"o. c #3E1E27",
"O. c #38232C",
"+. c #564A4F",
"@. c #7D5F49",
"#. c #8C7C6F",
"$. c #3A2B37",
"%. c #4D434C",
"&. c #978984",
"*. c #45343A",
"=. c #2C1E2D",
"-. c #452F2E",
";. c #8E7B53",
":. c #B9A695",
">. c #BEAB9C",
",. c #C8B5A7",
"<. c #9C4239",
"1. c #B14134",
"2. c #7D6A6B",
"3. c #95827B",
"4. c #552628",
"5. c #5D4843",
"6. c #603A2B",
"7. c #674430",
"8. c #5A5559",
"9. c #5C514E",
"0. c #48424F",
"q. c #666160",
"w. c #904236",
"e. c #B5A294",
"r. c #605255",
"t. c #B39F93",
"y. c #443949",
"u. c #4A3B43",
"i. c #4E3E45",
"p. c #4C4A59",
"a. c #56586B",
"s. c #878D90",
"d. c #575057",
"f. c #4D495A",
"g. c #8A8E90",
"h. c #4F4C5C",
"j. c #5D5A66",
"k. c #95292D",
"l. c #3D252B",
"z. c #463E4E",
"x. c #7B7E84",
"c. c #7D8186",
"v. c #3C2F3E",
"b. c #7F8489",
"n. c #74767C",
"m. c #BE392E",
"M. c #878A8D",
"N. c #919594",
"B. c #C93E2E",
"V. c #382938",
"C. c #716B6A",
"Z. c #524F5E",
"A. c #4C424B",
"S. c #9B2C2C",
"D. c #878E90",
"F. c #63626C",
"G. c #4A4456",
"H. c #5F5E69",
"J. c #6A6A74",
"K. c #6C4934",
"L. c #A1A5A0",
"P. c #B43C2F",
"I. c #5A3224",
"U. c #6F7078",
"Y. c #797B80",
"T. c #71747A",
"R. c #423035",
"E. c #55474B",
"W. c #624E45",
"Q. c #715E54",
"!. c #665E62",
"~. c #655753",
"^. c #625C62",
"/. c #544C53",
"(. c #979995",
"). c #4F4853",
"_. c #CC4230",
"`. c #413849",
"'. c #4D2826",
"]. c #56535D",
"[. c #757A82",
"{. c #59403A",
"}. c #67656D",
"|. c #989A88",
" X c #75573E",
".X c #2C2331",
"XX c #897652",
"oX c #624333",
"OX c #E45E42",
"+X c #3F3443",
"@X c #525164",
"#X c #565566",
"$X c #4B4451",
"%X c #9F8456",
"&X c #463A46",
"*X c #6E432A",
"=X c #706E72",
"-X c #6A6D78",
";X c #818688",
":X c #5A5660",
">X c #9CA09D",
",X c #4E3939",
"<X c #ABB0A9",
"1X c #957B52",
"2X c #2B2633",
"3X c #BA392F",
"4X c #A8332D",
"5X c #D04733",
"6X c #D2533D",
"7X c #75777D",
"8X c #83888C",
"9X c #905D33",
"0X c #B1B5AE",
"qX c #794B2C",
"wX c #8E9191",
"eX c #825734",
"rX c #785B47",
"tX c #85522E",
"yX c #89282D",
"uX c #474050",
"iX c #969D9B",
"pX c #72242B",
"aX c #A4AAA6",
"sX c #E0583D",
"dX c #663E2A",
"fX c #866443",
"gX c #432C2E",
"hX c #B5BDB2",
"jX c #C74433",
"kX c #ACA8A0",
"lX c #817C7B",
"zX c #643626",
"xX c #522B29",
"cX c #7B7671",
"vX c #DCE1D0",
"bX c #9E6535",
"nX c #83715F",
"mX c #86827D",
"MX c #B37436",
"NX c #B38541",
"BX c #CBD0C3",
"VX c #DD543B",
"CX c #9C8F67",
"ZX c #AA9766",
"AX c #786854",
"SX c #4C2F2B",
"DX c #9A7546",
"FX c #71615E",
"GX c #A84434",
"HX c #4A3D45",
"JX c #B34434",
"KX c #C14133",
"LX c #E86244",
"PX c #6B5349",
"IX c #A3682F",
"UX c #9C6231",
/* pixels */
"                                                                                                                                ",
"                                                                                                                                ",
"                                                                                                                                ",
"                                                                                                                                ",
"                                                                                                                                ",
"                                              X O O O O O ;                                                                     ",
"                                            ; T ~ g g g g ` & .                                                                 ",
"                                          t Q 1.jXjX5X6X6XJXw.` o                                                               ",
"                                      X m <.6XOXOXOXLXsXsXLXsXGXS X                                                             ",
"                                    # f ! _.5X_._._.5XVXLXVX5XKXS -                                                             ",
"                                  O V W B.B.m.m.m.m.B._.6XP.( [ h                                                               ",
"                                  m ( B.B.m.S.S.yXpXx 4Xx 9X%Xw O                                                               ",
"                                $ = P._.3XS.k.k.pXo.J q eXNXNXa S V & ;                                                         ",
"                                $ = P.B.4Xk.k.x ] y O J qXeX{.W.fX@ @ / 7 $                                                     ",
"                                $ = P.m.S.k.k.q 4   o $.PXnXn.7X7XC.%X%Xq. .3                                                   ",
"                                $ = P.m.S.k.yXq 4 j i J.[.8XD.D.D.M.cX%XZXmXl 4                                                 ",
"                                $ = 3Xm.k.k.x B & < U.U.s.D.s.s.(.aXN.lX1X#.mX9.-                                               ",
"                                X ] 3Xm.k.k.pXf l U.F.x.g.D.s.iXaX<X0XM.C. XC.Z y                                               ",
"                        X o #   0 ! B.m.S.yX= j 0.H.J.s.s.D.D.N.iXwXN.b.H.,Xd.!.u.X                                             ",
"                        # O.& | Q P.B.4Xk.q y : h.a.U.g.s.s.s.D.s.b.J.].C.&.<X^.O.#                                             ",
"                        # 4.M [ P.B.3XS.M m o i a.a.}.8Xg.g.s.x.F./.C.(.<XN.c.^.b v -                                           ",
"                        $ 7 ^ W 4XS.M q j   o d a.a.a.J.x.J.J.}.g.(.(.Y.}./.n.:X=X%..                                           ",
"                            0 = ^ ~ t C ;   o d a.a.@X/./.^.N.>Xx.n.).+Xj.A.n.d.d.p .                                           ",
"                              O C .         o d a.a.E.fXXXC.g.;Xv.h.).v.j.A.n.d.d.p .                                           ",
"                                            3 { #Xa.E.AX1X~.s.b.V.f.).v.j.A.n.d.d.p .                                           ",
"                                              6 h.a.h.,X8 =Xg.b.V.f.).v.j.A.n.d.d.p .                                           ",
"                                              6 Z.a.a.h.+Xh.c.b.v.Z.).v.j.A.n.d.d.p .                                           ",
"                                              6  X!.a.a.h.+X).H.U.c.=X&Xj.A.n.].).w O                                           ",
"                                              4 / rX!.j.#Xh.f.f.].T.M.Y.7Xd.[.b _ A                                             ",
"                                              - & G oXrXQ.:Xf.Z.h.uX$XH.x.c.c.D N X                                             ",
"                                            -  .H 8 SX'.SX$X@X@Xf.h.G.uXuX&X_ N -             X e : : : 0                       ",
"                                            0 H K.a DX@ l., ,X&X&XuXz.`.v.z A -               t r.kXkXlXe                       ",
"                                          3 l Z.H.}.~.%X@ *XtXtX*X, , , o.>                 7 < L.vXBXN.N                       ",
"                                          e f.-Xs.aXN.^.1XoXK.UXIXMXMX9Xl.7.h             t +.L.hXhX<XM.e                       ",
"                                        > K Z.U.D.>XL.[.Q.XXE.{.eXbXbXK.HXK.6..         7 < 0XBXL.iX(.} o                       ",
"                                        v dXa ~.T.;Xb.}.{.ZXAXn.=X~.E.^.Y.Q., &       t < (.BXL.s.M.} +                         ",
"                                        o G oXeXrX!.!.@ oXAX}.M.D.D.F.Y.L.C.8 &     7 i wXhX(.b.x.X.+                           ",
"                                      # z 2X2XR. XDX1X@ /.b c.s.D.;Xj.J.L.C.H h   7 < wX<XN.b.x.F +                             ",
"                                      0 L 2X2X2X.X,X~.d.a.[.D.M.Y.H.J.T.U.F.K.) 6 < wX0XN.b.c.F +                               ",
"                                    ; : gXK.fX XR..Xf.@X@XH.F.H.F.T.M.D.7X$XI.*X8 M.0XN.b.x.F +                                 ",
"                                    > , a W.Q.XX Xl.z.G.G.G.#X-Xc.s.s.8XF.v.R.I.*XFXx.b.x.X.+                                   ",
"                                    > -.E.[.>XL./.l.u u z.f.f.f.:X:X:X].&XV.+XR.I.zXE.Y.8.+                                     ",
"                                    X e p.-XY.T.$Xl.'.'.xXxXxXxX8 @ 1X@ *Xl.`.`.+XI.dX5.+                                       ",
"                                      | { f.j.M.!.u R.l.'.xXzXI.dX9XqX9XqXc V.z.z.u I.E T O                                     ",
"                                        : G.c.>X>Xj.G.f.uXV.l.u 8 tXtXqX,XV.v.z.w > B I.E f $                                   ",
"                                        7 y.T.8XJ.z.`.a.h.`.Z.#XZ.A.E.d.$Xf.L w .   o B G &                                     ",
"                                        # w Z.j.`.v.~.Q.A.#X[.n.x.c.b.b.h.A.*.3       3 4 -                                     ",
"                                        s 3 z K V.l.{.oX{.C.|.|.|.|.|.|.cXoX-.> X                                               ",
"                                            ; A =.2X.Xl.R.a @ ;.;.XXXXXXrXR. X) 4                                               ",
"                                              y =.gX@ CXW.c z y j L .X.Xc W.CXD o                                               ",
"                                              6 {.W.!.;XnXl .   # J l.gXK.W.D V #                                               ",
"                                              6 /.d.W.Q.@.f       : , K.Q.H.*..                                                 ",
"                                            X v h.f.^.~.v .       o K Z.-XT.$.O                                                 ",
"                                            + i G.uX].%.+ 5 5 5 5 | i #X-Xj.< h 5 5                                             ",
"                                  P % 9 9 U 3.V.&Xb ^.d t.2 2 2 2 ' i.V.v.$XF.+.' 2 I 9 9 n s                                   ",
"                                  P 9 :.2 Y R 2.Z k k #.e.r r r r r &.....k k Z R Y >.U I % s                                   ",
"                                      s 1 1 ,.,.n * * * % % % % % % * * * * * n ,.1 1 s                                         ",
"                                                                                                                                ",
"                                                                                                                                ",
"                                                                                                                                ",
"                                                                                                                                ",
"                                                                                                                                ",
"                                                                                                                                ",
"                                                                                                                                "
};
